HIERARCHY
ROOT SimulationBone
{
	OFFSET 0.000000 0.000000 0.000000
	CHANNELS 6 Xposition Yposition Zposition Zrotation Yrotation Xrotation 
	JOINT Hips
	{
		OFFSET 0.000000 0.000000 0.000000
		CHANNELS 6 Xposition Yposition Zposition Zrotation Yrotation Xrotation 
		JOINT LeftUpLeg
		{
			OFFSET 0.103454 1.857841 10.548504
			CHANNELS 3 Zrotation Yrotation Xrotation
			JOINT LeftLeg
			{
				OFFSET 43.499992 -0.000061 0.000000
				CHANNELS 3 Zrotation Yrotation Xrotation
				JOINT LeftFoot
				{
					OFFSET 42.372196 0.000008 -0.000002
					CHANNELS 3 Zrotation Yrotation Xrotation
					JOINT LeftToe
					{
						OFFSET 17.300022 0.000011 0.000012
						CHANNELS 3 Zrotation Yrotation Xrotation
						End Site
						{
							OFFSET 0.000000 0.000000 0.000000
						}
					}
				}
			}
		}
		JOINT RightUpLeg
		{
			OFFSET 0.103458 1.857820 -10.548491
			CHANNELS 3 Zrotation Yrotation Xrotation
			JOINT RightLeg
			{
				OFFSET 43.500046 0.000015 0.000006
				CHANNELS 3 Zrotation Yrotation Xrotation
				JOINT RightFoot
				{
					OFFSET 42.372269 -0.000046 0.000017
					CHANNELS 3 Zrotation Yrotation Xrotation
					JOINT RightToe
					{
						OFFSET 17.300032 0.000011 0.000015
						CHANNELS 3 Zrotation Yrotation Xrotation
						End Site
						{
							OFFSET 0.000000 0.000000 0.000000
						}
					}
				}
			}
		}
		JOINT Spine
		{
			OFFSET 6.901962 -2.603707 -0.000004
			CHANNELS 3 Zrotation Yrotation Xrotation
			JOINT Spine1
			{
				OFFSET 12.588104 -0.000004 -0.000001
				CHANNELS 3 Zrotation Yrotation Xrotation
				JOINT Spine2
				{
					OFFSET 12.343199 -0.000026 0.000003
					CHANNELS 3 Zrotation Yrotation Xrotation
					JOINT Neck
					{
						OFFSET 25.832890 0.000004 -0.000006
						CHANNELS 3 Zrotation Yrotation Xrotation
						JOINT Head
						{
							OFFSET 11.766623 0.000031 0.000004
							CHANNELS 3 Zrotation Yrotation Xrotation
							End Site
							{
								OFFSET 0.000000 0.000000 0.000000
							}
						}
					}
					JOINT LeftShoulder
					{
						OFFSET 19.745897 -1.480345 6.000100
						CHANNELS 3 Zrotation Yrotation Xrotation
						JOINT LeftArm
						{
							OFFSET 11.284126 0.000003 -0.000015
							CHANNELS 3 Zrotation Yrotation Xrotation
							JOINT LeftForeArm
							{
								OFFSET 33.000057 -0.000023 0.000027
								CHANNELS 3 Zrotation Yrotation Xrotation
								JOINT LeftHand
								{
									OFFSET 25.199987 0.000051 0.000021
									CHANNELS 3 Zrotation Yrotation Xrotation
									End Site
									{
										OFFSET 0.000000 0.000000 0.000000
									}
								}
							}
						}
					}
					JOINT RightShoulder
					{
						OFFSET 19.746086 -1.480362 -6.000076
						CHANNELS 3 Zrotation Yrotation Xrotation
						JOINT RightArm
						{
							OFFSET 11.284140 0.000004 -0.000015
							CHANNELS 3 Zrotation Yrotation Xrotation
							JOINT RightForeArm
							{
								OFFSET 33.000084 -0.000023 0.000011
								CHANNELS 3 Zrotation Yrotation Xrotation
								JOINT RightHand
								{
									OFFSET 25.199789 0.000148 0.000422
									CHANNELS 3 Zrotation Yrotation Xrotation
									End Site
									{
										OFFSET 0.000000 0.000000 0.000000
									}
								}
							}
						}
					}
				}
			}
		}
	}
}
MOTION
Frames: 10
Frame Time: 0.033333
-21.629062 0.000000 -507.451789 0.000000 10.974412 0.000000 1.434138 88.938820 -0.525185 98.797523 -2.550750 178.267795 168.724606 -3.122495 176.422625 -34.787185 -4.586674 0.406491 80.461111 -0.199216 -0.150870 21.454560 0.003111 0.000017 165.212809 8.282106 -179.447525 -69.115176 -1.080408 -0.571172 75.767063 1.327264 3.010839 21.454553 -0.003092 0.000000 9.496034 -1.312640 -1.049046 9.005851 -2.539614 -2.197548 8.687672 -2.552971 -2.182179 27.008801 -3.569891 -0.383714 -5.867296 -10.574890 2.601068 -161.901793 -73.133301 -19.980692 -16.293966 56.462401 22.467023 -31.433074 -14.725451 1.266902 6.147169 1.066315 14.624919 -162.502604 79.002018 19.342515 -36.715812 -66.061904 -2.753638 -36.392508 17.360053 -1.520477 8.717154 4.980714 -39.599722 
-20.571362 0.000000 -508.057061 0.000000 9.789962 0.000000 1.443598 89.035477 -0.438448 98.907955 -2.746589 179.229176 169.881531 -2.898100 175.973335 -34.516139 -4.438606 0.460282 81.160419 -0.207255 -0.018867 21.454557 0.003109 0.000017 163.845433 8.943802 -178.690152 -67.949959 -0.626680 -1.563018 77.116312 1.923775 2.818135 21.454546 -0.003092 0.000000 9.541636 -1.353549 -1.223666 9.101873 -2.606618 -2.550614 8.783747 -2.622106 -2.534838 27.253397 -3.611179 -0.220425 -4.964386 -10.739801 2.738701 -165.154193 -73.826319 -16.637716 -21.156651 53.080549 23.143784 -29.074278 -13.909614 1.168279 6.519955 2.791520 17.352333 -160.607158 78.712698 21.274306 -34.232229 -66.889251 -5.085249 -33.882011 16.591105 -1.412680 9.219663 4.551551 -37.344414 
-19.580288 0.000000 -508.567219 0.000000 8.657349 0.000000 1.505787 89.154640 -0.417483 99.075248 -3.015273 179.808040 171.256939 -2.500595 175.587635 -33.928507 -4.238493 0.272340 81.782295 -0.090554 -0.071303 21.454560 0.003107 0.000017 163.544973 9.297808 -179.345427 -63.914356 0.349107 -1.723585 78.304041 2.080143 3.231033 21.454555 -0.003091 0.000000 9.562013 -1.449863 -1.294815 9.146879 -2.792799 -2.700935 8.828753 -2.809189 -2.684032 27.612375 -3.542337 0.047756 -4.189926 -10.766864 2.960395 -167.781985 -74.282842 -13.942042 -25.151256 49.517383 24.257890 -27.470363 -13.275073 1.098516 8.047508 4.765279 17.805197 -160.382254 78.530196 21.505701 -31.374047 -67.481203 -8.129892 -31.189198 15.457901 -1.282610 10.090058 4.052487 -35.594165 
-18.654231 0.000000 -508.987486 0.000000 7.613643 0.000000 1.584458 89.265938 -0.417071 99.211679 -3.316766 -179.881301 172.621051 -1.986800 176.055885 -33.166548 -4.375865 -0.449880 82.348271 0.362769 -0.323881 21.454563 0.003104 0.000017 164.232213 9.281098 179.547724 -56.944544 0.949809 -1.756048 79.128418 2.055532 3.255163 21.454553 -0.003092 0.000000 9.552435 -1.563283 -1.342967 9.132227 -3.015661 -2.806047 8.814053 -3.032683 -2.787796 27.923200 -3.509255 0.542444 -3.644803 -11.210197 3.546790 -169.012498 -74.618826 -12.680931 -27.851010 46.617209 23.879400 -27.009718 -13.129663 1.081219 9.379766 5.952158 19.820524 -161.346881 78.479625 20.524524 -28.174177 -67.979261 -11.922040 -28.904401 14.489249 -1.176205 10.888596 3.347159 -35.243694 
-17.787754 0.000000 -509.320839 0.000000 6.666211 0.000000 1.694559 89.430817 -0.401668 99.212298 -3.441912 -179.632436 173.858395 -1.773406 176.385606 -32.321097 -4.587728 -1.027625 82.728467 0.738644 -0.486073 21.454555 0.003111 0.000017 166.339995 8.926804 177.160135 -46.036138 2.168111 -1.363807 78.427142 1.835756 3.543817 21.454550 -0.003091 0.000000 9.487659 -1.599597 -1.371047 9.004377 -3.087632 -2.863393 8.686208 -3.104996 -2.844708 28.001774 -3.945489 1.139893 -3.117795 -11.802770 4.302895 -169.484218 -74.688146 -12.197881 -29.623832 44.533267 21.837880 -27.070446 -13.520995 1.107370 9.600113 5.567511 22.837395 -160.911757 78.658337 20.965085 -24.540064 -68.790148 -15.692020 -27.799538 14.112944 -1.132106 12.309400 1.407742 -37.836369 
-16.975289 0.000000 -509.567092 0.000000 5.814864 0.000000 1.674803 90.038292 -0.433762 98.873512 -2.635463 -179.192817 175.100710 -2.404603 176.939780 -30.392696 -4.757804 -1.595830 82.330404 1.117054 -0.590531 21.454558 0.003109 0.000017 169.399510 7.519104 174.655846 -34.653405 2.569924 -0.130949 78.879573 0.975610 3.730379 21.454557 -0.003094 0.000000 9.332353 -1.425656 -1.357437 8.688198 -2.745370 -2.818806 8.370110 -2.762474 -2.802190 27.878028 -4.562553 1.803247 -2.791535 -12.592404 5.197298 -169.701692 -74.744297 -11.975213 -30.597571 43.293748 19.057075 -27.777409 -14.160788 1.160725 9.251852 3.451955 24.147818 -159.437311 78.701415 22.464789 -20.169602 -69.651544 -19.641129 -27.738185 14.321681 -1.144405 12.778526 -0.898678 -44.333071 
-16.216917 0.000000 -509.745239 0.000000 5.072827 0.000000 1.594579 90.211739 -0.343198 98.466337 -2.510779 -178.839000 175.460798 -2.485596 176.564078 -29.953836 -4.414696 -1.667020 82.465921 1.111481 -0.808408 21.454560 0.003111 0.000017 170.366187 6.458298 173.731544 -33.035637 1.558536 0.531834 79.582079 0.609114 4.151814 21.454545 -0.003093 0.000000 9.152666 -1.392542 -1.364227 8.327893 -2.683327 -2.825795 8.009847 -2.700473 -2.809553 27.642739 -4.963165 2.555701 -2.916167 -13.561310 6.256613 -169.096810 -74.568679 -12.594651 -31.402765 42.275114 15.449654 -28.585450 -14.520045 1.198348 8.425245 0.144985 22.351041 -158.366132 78.134120 23.564313 -14.721887 -70.035114 -23.709668 -28.383147 14.677337 -1.178717 13.191354 -2.544615 -50.803896 
-15.508889 0.000000 -509.868439 0.000000 4.449247 0.000000 1.478480 90.605476 -0.126134 98.179692 -1.549231 -178.562385 175.998607 -3.396394 176.426792 -29.165338 -4.007791 -1.849768 82.260285 1.140018 -1.208537 21.454557 0.003107 0.000018 171.822930 4.968505 172.834030 -30.377154 1.357419 1.375332 78.684647 0.075855 4.272711 21.454551 -0.003091 0.000000 9.010830 -1.130062 -1.345553 8.036395 -2.164016 -2.766704 7.718469 -2.180815 -2.753600 27.587636 -5.010879 3.471040 -3.306094 -15.220578 7.674392 -168.635404 -74.308046 -13.067428 -31.889159 42.221245 11.149611 -29.714308 -15.125391 1.258394 7.503119 -2.853481 17.862826 -157.252279 77.668786 24.707284 -11.136931 -70.051028 -25.588056 -28.357622 14.486932 -1.166048 13.606630 -2.975018 -52.823105 
-14.845352 0.000000 -509.935576 0.000000 3.958272 0.000000 1.413626 90.963181 0.103106 98.003260 -0.791387 -178.375936 176.659428 -4.173403 175.928570 -28.316948 -3.538452 -1.838907 81.847980 1.033856 -1.577983 21.454558 0.003111 0.000018 173.130938 4.100296 173.671780 -28.044649 1.005486 1.009858 77.755557 0.309925 4.034884 21.454555 -0.003095 0.000000 8.910747 -0.851155 -1.405294 7.829522 -1.605370 -2.865119 7.511719 -1.622772 -2.855386 27.433086 -5.296240 4.390726 -3.636610 -16.642000 9.053271 -168.584587 -73.909163 -13.119958 -31.729104 43.085171 6.406423 -31.772476 -16.048884 1.358908 7.277796 -5.091783 12.251931 -157.295049 77.612109 24.664797 -8.538629 -69.898182 -27.057031 -27.964678 14.439030 -1.155929 13.723784 -2.504655 -50.961192 
-14.219377 0.000000 -509.948693 0.000000 3.611424 0.000000 1.348995 91.298843 0.274016 97.674973 -0.442031 -178.340498 177.585547 -4.539596 175.355531 -26.640707 -3.216631 -1.790604 81.381410 0.927032 -1.836353 21.454557 0.003112 0.000017 174.005530 4.346801 174.124868 -26.072340 2.124873 0.513668 76.948679 0.434386 3.186279 21.454550 -0.003091 0.000000 8.768840 -0.693587 -1.452466 7.541931 -1.291165 -2.947117 7.224195 -1.309069 -2.939280 27.103123 -5.095188 5.122149 -3.623063 -17.722111 10.050300 -168.984891 -74.053464 -12.709412 -31.224138 44.845315 2.091887 -34.862570 -16.837207 1.477579 7.892045 -5.943118 6.768697 -156.924621 77.591926 25.042612 -5.981128 -69.866954 -28.297337 -28.228772 14.743180 -1.180143 13.818139 -2.051102 -48.182302 
